<?xml version="1.0" standalone="no"?>
<!DOCTYPE svg PUBLIC "-//W3C//DTD SVG 20010904//EN"
 "http://www.w3.org/TR/2001/REC-SVG-20010904/DTD/svg10.dtd">
<svg version="1.0" xmlns="http://www.w3.org/2000/svg"
 width="225.000000pt" height="225.000000pt" viewBox="0 0 225.000000 225.000000"
 preserveAspectRatio="xMidYMid meet">
<metadata>
Created by potrace 1.11, written by Peter Selinger 2001-2013
</metadata>
<g transform="translate(0.000000,225.000000) scale(0.100000,-0.100000)"
fill="#000000" stroke="none">
<path d="M1098 2101 c-32 -29 -39 -60 -26 -123 2 -11 -57 -69 -177 -174 -339
-296 -388 -339 -398 -350 -7 -7 -22 -7 -46 -1 -75 20 -151 -44 -151 -127 0
-54 61 -116 113 -116 44 0 75 12 105 40 l23 21 424 -168 c420 -166 424 -168
425 -197 0 -47 47 -121 92 -146 99 -56 228 -3 257 105 15 58 -5 130 -48 177
-24 24 -87 49 -107 41 -12 -4 -15 -3 -10 6 8 12 -12 64 -224 576 l-116 280 19
33 c27 45 13 141 -14 102 -9 -13 -10 -12 -6 2 8 24 -25 48 -66 48 -26 0 -46
-8 -69 -29z m132 -72 c0 -16 -4 -28 -9 -25 -8 5 -3 56 5 56 2 0 4 -14 4 -31z
m10 -49 c0 -5 -5 -10 -11 -10 -5 0 -7 5 -4 10 3 6 8 10 11 10 2 0 4 -4 4 -10z
m-131 -72 c0 -18 -13 -141 -27 -272 -27 -238 -27 -239 -51 -241 -13 -1 -32
-12 -42 -24 -18 -22 -21 -23 -191 -16 -232 9 -269 12 -282 25 -8 8 -7 10 4 5
10 -3 105 85 295 275 154 154 283 280 287 280 5 0 8 -15 7 -32z m187 -368 c57
-211 102 -385 100 -387 -2 -3 -69 34 -147 80 -115 69 -147 83 -159 74 -12 -9
-13 -9 -2 3 15 17 16 34 2 25 -7 -4 -9 2 -4 19 4 17 2 26 -6 26 -6 0 -9 -4 -6
-9 3 -5 -1 -14 -9 -21 -10 -9 -15 -9 -15 -1 0 6 4 11 8 11 5 0 9 6 9 13 1 18
92 476 104 521 6 21 13 36 15 33 3 -3 52 -177 110 -387z m-775 -127 c11 -13
11 -15 1 -9 -8 5 -19 1 -28 -10 -14 -18 -15 -18 -5 2 6 12 7 24 4 28 -3 3 -2
6 4 6 6 0 17 -8 24 -17z m9 -63 c0 -5 -9 -6 -20 -3 -11 3 -20 9 -20 13 0 5 9
6 20 3 11 -3 20 -9 20 -13z m-13 -36 c-7 -7 -37 7 -37 17 0 6 9 5 21 -1 11 -7
19 -14 16 -16z m30 -6 c-3 -7 -5 -2 -5 12 0 14 2 19 5 13 2 -7 2 -19 0 -25z
m444 -4 c19 -23 51 -33 72 -22 14 7 33 -4 96 -59 44 -37 78 -69 76 -71 -3 -3
-495 119 -570 141 -38 11 -35 12 70 18 221 11 242 10 256 -7z m610 -269 c5 4
6 -1 3 -9 -4 -11 2 -19 17 -25 32 -12 47 4 26 27 -14 15 -14 19 -2 19 8 0 12
-4 9 -9 -3 -4 1 -11 10 -14 8 -3 17 -12 20 -20 3 -8 2 -13 -3 -10 -5 3 -12 -1
-15 -10 -8 -21 -8 -26 2 -20 4 2 14 1 22 -5 11 -6 12 -9 2 -9 -7 0 -10 -5 -7
-10 5 -8 11 -7 21 1 12 10 13 9 8 -5 -3 -9 -15 -16 -25 -16 -17 0 -18 -3 -9
-20 6 -11 15 -18 20 -15 5 3 12 0 16 -6 5 -8 3 -9 -6 -4 -10 6 -12 4 -7 -8 9
-23 -2 -21 -29 4 -22 20 -25 21 -48 6 -23 -15 -24 -15 -29 4 -5 18 -11 20 -39
14 -32 -6 -33 -6 -13 12 26 23 26 44 0 54 -16 6 -14 8 13 8 32 1 32 1 27 44
-3 23 -2 36 1 29 3 -6 10 -10 15 -7z m40 -22 c13 -16 12 -17 -3 -4 -17 13 -22
21 -14 21 2 0 10 -8 17 -17z m-94 -69 c-3 -3 -12 -4 -19 -1 -8 3 -5 6 6 6 11
1 17 -2 13 -5z m147 -112 c3 -5 -1 -9 -9 -9 -8 0 -12 4 -9 9 3 4 7 8 9 8 2 0
6 -4 9 -8z"/>
<path d="M124 746 c-48 -21 -59 -74 -24 -118 18 -24 27 -26 120 -30 112 -4
130 -13 112 -53 -11 -25 -13 -25 -132 -25 -120 0 -121 0 -118 -22 3 -22 6 -23
129 -23 151 0 169 9 169 81 0 34 -5 47 -26 63 -23 18 -41 21 -120 21 -86 0
-93 1 -100 22 -11 37 18 48 133 48 l103 0 0 25 0 25 -107 0 c-68 -1 -120 -6
-139 -14z"/>
<path d="M888 753 c-68 -11 -117 -101 -97 -177 22 -82 83 -111 219 -104 58 3
65 5 68 25 3 20 -1 21 -92 25 -87 3 -98 5 -121 29 -47 46 -31 128 28 149 16 5
66 10 109 10 77 0 79 1 76 23 -3 21 -8 22 -83 23 -44 1 -92 -1 -107 -3z"/>
<path d="M547 643 c-3 -5 -13 -37 -22 -73 -9 -36 -18 -73 -21 -82 -4 -12 0
-18 10 -18 10 0 19 16 26 43 19 75 21 75 48 15 14 -32 30 -58 37 -58 6 0 23
28 37 61 l25 61 17 -61 c16 -57 24 -69 38 -55 8 8 -36 165 -47 167 -6 1 -24
-27 -41 -62 l-30 -63 -26 60 c-26 59 -42 80 -51 65z"/>
<path d="M430 555 c0 -69 3 -85 15 -85 12 0 15 16 15 85 0 69 -3 85 -15 85
-12 0 -15 -16 -15 -85z"/>
<path d="M1120 555 l0 -85 75 0 c60 0 75 3 75 15 0 12 -13 15 -60 15 l-60 0 0
55 0 55 60 0 c47 0 60 3 60 15 0 12 -15 15 -75 15 l-75 0 0 -85z"/>
<path d="M1304 627 c-10 -27 1 -150 14 -155 9 -3 12 13 12 57 0 34 2 61 4 61
3 0 30 -27 62 -60 31 -33 63 -60 71 -60 10 0 13 20 13 85 0 69 -3 85 -15 85
-12 0 -15 -13 -15 -57 l0 -57 -58 57 c-58 58 -78 68 -88 44z"/>
<path d="M1510 625 c0 -10 11 -15 35 -15 l35 0 0 -70 c0 -56 3 -70 15 -70 12
0 15 14 15 70 l0 70 30 0 c20 0 30 5 30 15 0 12 -16 15 -80 15 -64 0 -80 -3
-80 -15z"/>
<path d="M1710 554 c0 -64 3 -85 13 -82 7 3 13 29 15 72 l3 67 57 -3 c53 -3
57 -5 57 -28 0 -23 -4 -25 -47 -28 -34 -2 -48 -7 -48 -18 0 -9 11 -14 30 -14
20 0 38 -9 52 -25 12 -14 30 -25 40 -25 24 0 23 9 -4 31 -20 18 -20 20 -5 37
21 23 22 66 1 86 -11 12 -36 16 -90 16 l-74 0 0 -86z"/>
<path d="M1940 555 c0 -69 3 -85 15 -85 12 0 15 16 15 85 0 69 -3 85 -15 85
-12 0 -15 -16 -15 -85z"/>
<path d="M2032 617 c-22 -23 -29 -68 -16 -102 10 -25 59 -45 114 -45 38 0 50
4 50 15 0 11 -12 15 -48 15 -59 0 -92 21 -92 59 0 40 17 51 82 51 45 0 58 3
58 15 0 12 -14 15 -63 15 -53 0 -67 -4 -85 -23z"/>
<path d="M1170 560 c0 -5 23 -10 50 -10 28 0 50 5 50 10 0 6 -22 10 -50 10
-27 0 -50 -4 -50 -10z"/>
<path d="M232 378 c3 -7 21 -14 42 -16 l37 -3 -2 -72 c-2 -57 1 -72 12 -72 11
0 13 12 11 52 -5 73 3 91 40 95 17 2 33 9 36 16 3 9 -19 12 -88 12 -69 0 -91
-3 -88 -12z"/>
<path d="M437 333 c-4 -3 -7 -33 -7 -65 l0 -58 60 0 c33 0 60 4 60 10 0 6 -23
10 -51 10 l-50 0 3 43 3 42 48 3 c26 2 45 7 42 13 -7 10 -98 13 -108 2z"/>
<path d="M610 327 c-32 -16 -40 -70 -14 -98 18 -20 104 -28 104 -9 0 6 -17 10
-37 10 -43 0 -57 7 -66 33 -10 27 26 57 68 57 19 0 35 5 35 10 0 14 -60 12
-90 -3z"/>
<path d="M740 276 c0 -37 4 -66 10 -66 6 0 10 26 10 59 0 33 -4 63 -10 66 -6
4 -10 -18 -10 -59z"/>
<path d="M840 310 c0 -28 -3 -30 -37 -30 -20 0 -33 -3 -29 -7 4 -5 20 -8 34
-8 22 0 28 -5 30 -27 6 -54 22 -27 22 37 0 37 -4 65 -10 65 -5 0 -10 -13 -10
-30z"/>
<path d="M897 334 c-11 -11 -8 -124 3 -124 6 0 10 21 10 47 l0 47 50 -49 c27
-27 52 -46 56 -43 9 10 11 79 3 108 -7 24 -7 24 -9 -5 -1 -16 -2 -38 -1 -47 3
-28 -10 -22 -59 27 -26 25 -49 42 -53 39z"/>
<path d="M1090 327 c-36 -18 -41 -78 -8 -101 50 -35 128 -7 128 47 0 28 -9 41
-37 56 -28 14 -52 14 -83 -2z m67 -13 c28 -8 38 -36 23 -64 -15 -29 -77 -24
-97 7 -13 19 -12 24 6 42 22 22 32 24 68 15z"/>
<path d="M1240 275 l0 -65 55 0 c30 0 55 5 55 10 0 6 -20 10 -45 10 l-45 0 0
55 c0 30 -4 55 -10 55 -6 0 -10 -28 -10 -65z"/>
<path d="M1413 330 c-70 -28 -42 -120 37 -120 81 0 107 93 34 120 -30 12 -42
12 -71 0z m61 -16 c26 -10 38 -41 26 -64 -15 -28 -85 -28 -100 -1 -14 27 -13
37 6 55 16 17 41 20 68 10z"/>
<path d="M1574 315 c-19 -19 -23 -31 -18 -48 13 -43 34 -57 86 -57 l48 0 0 35
c0 35 0 35 -42 33 -37 -1 -39 -2 -10 -5 24 -3 32 -9 32 -24 0 -15 -7 -19 -32
-19 -37 0 -52 8 -61 32 -9 26 15 49 61 55 54 7 55 23 2 23 -30 0 -47 -7 -66
-25z"/>
<path d="M1730 276 c0 -37 4 -66 10 -66 6 0 10 26 10 59 0 33 -4 63 -10 66 -6
4 -10 -18 -10 -59z"/>
<path d="M1787 333 c-4 -3 -7 -33 -7 -65 l0 -58 60 0 c33 0 60 4 60 10 0 6
-23 10 -51 10 l-50 0 3 43 3 42 48 3 c26 2 45 7 42 13 -7 10 -98 13 -108 2z"/>
<path d="M1940 325 c-24 -29 -8 -50 45 -55 37 -4 51 -9 53 -22 3 -15 -5 -18
-52 -18 -31 0 -56 -4 -56 -10 0 -12 100 -13 118 -1 8 4 12 19 10 32 -3 21 -10
25 -53 29 -36 4 -50 9 -50 20 0 16 3 17 66 19 57 2 39 21 -20 21 -30 0 -53 -6
-61 -15z"/>
<path d="M470 276 c0 -8 61 -12 66 -4 3 4 -11 8 -30 8 -20 0 -36 -2 -36 -4z"/>
<path d="M1838 273 c12 -2 30 -2 40 0 9 3 -1 5 -23 4 -22 0 -30 -2 -17 -4z"/>
</g>
</svg>
